<svg width="97" height="91" viewBox="0 0 97 91" fill="none" xmlns="http://www.w3.org/2000/svg">
<path d="M0.0265638 90.2532C1.62009 87.1484 2.67447 83.7953 3.1447 80.3372C3.35096 78.8083 3.31634 77.244 3.59114 75.7261C3.66528 75.0721 3.88626 74.4433 4.23758 73.8868C4.5889 73.3302 5.06147 72.8602 5.61997 72.512C6.92935 71.9232 8.39719 71.7859 9.79305 72.1217C11.5556 72.4091 13.2941 72.8708 15.0458 73.2198C18.7174 73.9512 22.4125 74.5469 26.1312 75.0069C26.9129 75.1036 27.696 75.1881 28.4765 75.2944C29.0326 75.3921 29.5962 75.4415 30.1608 75.4419C31.4097 75.3936 32.0085 74.4958 32.3674 73.3837C32.3802 73.3442 32.391 73.3043 32.4031 73.2646C30.3526 72.8525 28.3391 72.2739 26.3825 71.5347C23.7017 70.5393 21.2522 69.0073 19.1841 67.0323C18.181 66.0477 17.3206 64.9276 16.6278 63.7047C15.8368 62.2967 15.2534 60.7887 14.5633 59.3316C14.2035 58.5518 13.7868 57.7996 13.3164 57.081C12.9 56.4586 12.437 55.869 12.0107 55.2535C11.1506 54.182 10.6698 52.8557 10.6435 51.482C10.7789 48.5703 13.3991 46.6549 15.7689 45.4707C17.2544 44.8152 18.6994 44.0713 20.096 43.243C20.2935 43.1127 20.4863 42.976 20.6769 42.8362C20.2674 40.8919 20.1653 38.8954 20.3745 36.9196C20.7016 33.8984 22.0009 30.6927 24.9961 29.4543C25.6633 29.1774 26.38 29.0401 27.1023 29.0509C27.1627 29.046 27.2226 29.0646 27.2697 29.1028C27.3167 29.141 27.3472 29.1958 27.3547 29.2559C27.537 31.8526 27.0832 34.4545 26.0328 36.8361C24.9824 39.2178 23.3671 41.3074 21.3267 42.9238C21.2811 42.9595 21.2341 42.9926 21.1881 43.0275C21.3838 43.8937 21.6386 44.7455 21.9508 45.5769C22.5204 47.0951 23.2848 48.5328 24.2248 49.8541C25.2277 51.1766 26.3301 52.4206 27.5223 53.5752C28.658 54.6717 29.6716 55.8881 30.5452 57.203C31.3898 58.6161 31.9938 60.1597 32.3327 61.7707C32.6814 63.4363 32.9206 65.123 33.0488 66.82C33.2653 68.4644 33.3073 70.1271 33.1742 71.7803C33.1316 72.1391 33.073 72.5263 32.9872 72.9154C34.1591 73.1531 35.3372 73.3603 36.5165 73.5572C37.6466 73.7871 38.7942 73.9204 39.9469 73.9555C40.964 73.9919 41.9757 73.7921 42.9027 73.3718C43.414 73.1148 43.838 72.7123 44.1212 72.215C44.4045 71.7177 44.5344 71.1478 44.4947 70.5768C44.4457 69.1453 43.8479 67.6846 44.6133 66.3358C44.8938 65.8389 45.3035 65.427 45.7989 65.1438C46.0413 65.0067 46.4605 64.9366 46.6403 64.7172C46.9282 64.3658 46.4877 63.8836 46.218 63.6826C45.7492 63.3331 45.1715 63.0557 45.0225 62.4366C44.983 62.1289 45.0185 61.8161 45.1259 61.5251C45.2334 61.234 45.4097 60.9733 45.6398 60.7651C46.0798 60.2889 46.6873 59.8694 46.7975 59.1851C46.8288 58.5851 46.6452 57.9936 46.2798 57.5167C45.698 56.593 44.796 55.7105 44.6206 54.591C44.5833 54.171 44.6425 53.748 44.7937 53.3544C44.945 52.9608 45.1842 52.607 45.4932 52.32C46.1748 51.5799 47.007 50.9959 47.6819 50.2491C48.1191 49.8312 48.4129 49.2856 48.5213 48.6906C48.6297 48.0955 48.5471 47.4814 48.2854 46.9361C47.614 45.4954 46.2205 44.653 45.0692 43.638C44.0238 42.7389 43.2472 41.5684 42.8251 40.2557C42.2065 37.8489 42.2006 35.3256 42.8079 32.9159C40.7409 32.4059 38.5575 32.6998 36.699 33.7381C35.762 34.2294 34.9581 34.9405 34.3563 35.8105C34.0755 36.2521 33.8134 36.9463 34.306 37.3452C34.7422 37.592 35.2582 37.6565 35.7418 37.5248C36.4228 37.4276 37.1009 37.3014 37.7796 37.189C38.4455 37.0787 39.117 36.932 39.7906 36.8801C40.7639 36.8051 42.0808 37.196 42.1455 38.3717C42.1424 38.619 42.081 38.862 41.9662 39.081C41.8514 39.3001 41.6866 39.4889 41.4851 39.6322C40.9962 40.0087 40.4765 40.3433 39.9316 40.6327C38.7671 41.3104 37.5604 41.9121 36.339 42.4797C36.131 42.5764 35.9219 42.6707 35.7132 42.7657C35.8072 42.8143 35.8959 42.8725 35.978 42.9393C36.214 43.1329 36.3902 43.3894 36.4862 43.6791C36.8058 42.9289 37.3212 42.2785 37.9783 41.7958C38.2701 41.6237 38.6102 41.5518 38.9467 41.5912C39.2831 41.6305 39.5974 41.779 39.8416 42.0138C39.8393 41.9373 39.8284 41.8603 39.8214 41.7922C39.7896 41.5849 39.7792 41.375 39.7906 41.1656C39.8039 40.9648 39.89 40.7758 40.0326 40.6338C40.1753 40.4919 40.3649 40.4069 40.5657 40.3946C40.7856 40.3927 41.0036 40.4356 41.2063 40.5208C41.409 40.606 41.5922 40.7316 41.7447 40.89C42.0973 41.2337 42.4185 41.7226 42.9536 41.7559C43.2483 41.7743 43.1711 42.2279 42.8777 42.2097C42.455 42.1515 42.0698 41.9359 41.7992 41.606C41.4868 41.286 41.1734 40.8854 40.6876 40.8542C40.1539 40.82 40.2416 41.3847 40.2789 41.7447C40.3217 41.9174 40.3184 42.0982 40.2693 42.2691C40.2202 42.44 40.1271 42.5951 39.9993 42.7187C39.9708 42.7393 39.938 42.7531 39.9033 42.7591C39.8687 42.7651 39.8331 42.7631 39.7994 42.7533C39.7656 42.7435 39.7345 42.7261 39.7085 42.7024C39.6825 42.6788 39.6622 42.6495 39.6491 42.6169C39.5937 42.4464 39.4857 42.2978 39.3406 42.1924C39.1955 42.0871 39.0208 42.0303 38.8415 42.0303C38.6459 42.0321 38.4528 42.075 38.2748 42.1561C38.0968 42.2373 37.9378 42.355 37.8082 42.5016C37.1981 43.115 36.9343 43.979 36.3875 44.6424C36.2262 44.8382 35.8739 44.6394 35.9995 44.4024C36.3127 43.8117 35.7547 43.1848 35.1872 43.0561C35.1582 43.0495 35.1283 43.049 35.0991 43.0441C34.8253 43.1669 34.5513 43.2892 34.2771 43.4111C33.86 43.6254 33.3913 43.7182 32.9241 43.6791C31.9492 43.6028 31.0134 43.2632 30.2165 42.6965C30.1785 42.6639 30.1521 42.6198 30.1412 42.5709C30.1304 42.5221 30.1356 42.471 30.1562 42.4254C30.1768 42.3797 30.2116 42.342 30.2555 42.3178C30.2993 42.2936 30.3498 42.2842 30.3994 42.2911C30.9545 42.3999 31.5022 42.5434 32.0394 42.7208C32.3288 42.8045 32.6249 42.8631 32.9244 42.896C33.2371 42.89 33.546 42.826 33.8354 42.7072C34.2195 42.5936 34.6205 42.548 35.0204 42.5724C35.3392 42.4292 35.6589 42.2882 35.9763 42.1418C37.1956 41.5791 38.4034 40.9872 39.5669 40.3156C40.1311 40.0167 40.6706 39.6733 41.1803 39.2888C41.2983 39.2205 41.4004 39.128 41.4801 39.0175C41.5598 38.9069 41.6153 38.7808 41.6428 38.6473C41.6703 38.5138 41.6693 38.376 41.6398 38.2429C41.6103 38.1099 41.553 37.9846 41.4717 37.8752C41.2655 37.657 41.0081 37.4936 40.7229 37.3997C40.4377 37.3059 40.1337 37.2845 39.8382 37.3376C39.1645 37.3896 38.493 37.5363 37.8271 37.6465C37.1609 37.7568 36.4954 37.8777 35.8274 37.9767C35.3685 38.0687 34.8945 38.0525 34.4429 37.9294C34.2232 37.8614 34.0265 37.7338 33.8749 37.5608C33.7233 37.3878 33.6225 37.1761 33.5839 36.9494C33.5445 36.4329 33.6952 35.9198 34.0078 35.5067C34.6024 34.6595 35.3799 33.9566 36.2826 33.4502C38.2729 32.2702 40.6462 31.9165 42.8941 32.4648C43.0854 31.4794 43.2942 30.4942 43.4662 29.5111C43.1788 29.3104 42.8923 29.1088 42.6069 28.9062C40.4813 27.5246 38.5331 25.8877 36.8059 24.0319C35.2424 22.1993 34.2435 19.9528 33.9301 17.5643C33.8332 16.8326 33.7953 16.0942 33.8169 15.3563C32.4719 14.9534 31.1168 14.587 29.7514 14.2571C28.1075 13.8609 26.4511 13.5256 24.7864 13.2302C23.2581 12.959 21.7237 12.6997 20.2272 12.281C17.4761 11.6684 15.0447 10.0695 13.3922 7.78622C12.6922 6.73306 12.2995 5.50562 12.2584 4.24169C12.252 3.94783 12.7094 3.89786 12.7159 4.19428C12.7799 7.1467 15.0172 9.5402 17.5456 10.7921C20.4595 12.2349 23.7735 12.5307 26.9201 13.1618C29.2495 13.6291 31.5555 14.2028 33.8382 14.883C33.9316 13.3947 34.255 11.9299 34.7969 10.5406C35.6837 8.33792 37.0713 6.37204 38.8499 4.79879C42.698 1.48462 47.6721 -0.224781 52.7446 0.023752C55.4287 0.120183 58.0846 0.606995 60.6284 1.46886C60.9089 1.56186 60.7174 1.9803 60.4384 1.88781C55.2926 0.181582 49.5246 -0.168018 44.4223 1.88388C42.1764 2.72265 40.1479 4.05584 38.487 5.78476C36.8261 7.51367 35.5753 9.59402 34.8273 11.8718C34.53 12.8967 34.3499 13.952 34.2903 15.0175C35.1324 15.2744 35.9696 15.546 36.802 15.8322C38.9219 16.4127 40.8001 17.6573 42.1609 19.3834C42.9502 20.4842 43.5383 21.7161 43.8982 23.022C44.2729 24.5949 44.3614 26.2225 44.1595 27.8269C44.1085 28.3253 44.0372 28.821 43.9561 29.3154C44.1327 29.4378 44.3093 29.5602 44.4856 29.6825C45.4735 30.3076 46.3902 31.0387 47.2195 31.8627C47.9383 32.7167 48.4083 33.7521 48.5781 34.8554C49.1632 37.5578 49.7631 40.2634 50.1041 43.01C50.2871 44.4842 50.4099 45.9642 50.4724 47.45C50.439 48.1796 50.5204 48.9099 50.7137 49.6143C50.7967 49.906 50.9711 50.1634 51.2112 50.3486C51.4513 50.5339 51.7446 50.6373 52.0478 50.6435C53.1458 50.5388 53.5601 48.9073 54.0077 48.1119C54.5907 47.0761 55.3577 46.1553 56.2709 45.3946C57.0313 44.7615 58.1797 43.905 59.2301 44.3277C59.4319 44.434 59.6099 44.5803 59.7532 44.7576C59.8966 44.9349 60.0024 45.1396 60.0641 45.3591C60.1257 45.5787 60.1421 45.8085 60.112 46.0346C60.082 46.2606 60.0062 46.4782 59.8894 46.674C59.575 47.1188 59.1726 47.4943 58.7071 47.7772C58.2416 48.0601 57.723 48.2443 57.1833 48.3184C56.1218 48.6145 54.4805 49.1306 54.4715 50.4971C54.4648 51.513 55.4101 52.3751 56.0646 53.0409C56.3716 53.2987 56.6034 53.6345 56.7358 54.0129C56.7532 54.0778 56.7696 54.1419 56.7858 54.2053C60.3175 53.2845 63.9341 52.7272 67.5792 52.5421C67.6292 52.5375 67.6793 52.5492 67.7222 52.5753C67.765 52.6014 67.7984 52.6406 67.8172 52.6872C67.841 52.7799 67.8585 52.8742 67.8694 52.9693L67.87 52.9721C67.9181 53.6669 67.7008 54.3541 67.2618 54.8948C66.7641 55.5796 66.16 56.1698 65.6973 56.8838C64.8717 58.1691 64.3443 59.623 64.154 61.1388C64.5343 61.5484 64.8764 62.0017 65.2635 62.4041C65.7414 62.9008 66.2376 63.3794 66.7237 63.8679C68.4742 65.627 70.3049 67.5764 72.7772 68.2614C73.9965 68.5531 75.2634 68.5862 76.4963 68.3587C77.7292 68.1312 78.9008 67.648 79.9357 66.9404C81.9365 65.5652 83.5637 63.7137 84.6706 61.5528C85.2499 60.5195 85.641 59.3916 85.8258 58.2215C85.934 56.9156 86.1142 55.6167 86.3655 54.3307C87.1805 51.7638 88.4743 49.3745 90.1786 47.2892C91.7376 45.3122 93.1234 43.2045 94.3204 40.9895C95.2994 38.9892 96.1742 36.4114 95.2663 34.2269C95.0509 33.7016 94.6985 33.2437 94.2458 32.901C93.7931 32.5584 93.2567 32.3435 92.6926 32.2789C91.4609 32.1781 90.223 32.3734 89.0822 32.8485C86.8129 33.6749 84.8023 35.086 83.2537 36.9392C82.4291 37.9678 81.7299 39.0909 81.1706 40.2847C80.6293 41.4917 79.9921 42.6533 79.2651 43.7584C77.9712 45.5741 75.9409 47.0084 73.6157 46.5443C72.5995 46.2947 71.6567 45.8085 70.864 45.1253C70.0713 44.4422 69.4513 43.5814 69.0545 42.6131C68.0471 40.2866 68.4358 37.5904 69.2189 35.262C70.2282 32.7596 71.3711 30.3132 72.6426 27.9334C73.2287 26.7167 73.6782 25.4389 73.9831 24.1234C74.3558 22.7643 74.2479 21.3182 73.6776 20.0295C72.526 17.8118 69.6423 17.0362 67.3727 16.6658C64.6376 16.283 61.86 16.3217 59.1366 16.7804C57.7816 16.9777 56.4356 17.2335 55.0955 17.5135C53.6755 17.7759 52.2842 18.1752 50.9412 18.7056C48.7884 19.6144 46.6237 21.338 46.2395 23.7809C46.0431 24.8648 46.2678 25.9829 46.8677 26.9069C47.2036 27.3554 47.641 27.7179 48.1441 27.9646C48.6472 28.2112 49.2017 28.335 49.762 28.3259C50.9466 28.3008 52.1176 28.0671 53.2211 27.6352C54.6012 27.1601 55.9677 26.6421 57.3396 26.1437C58.7052 25.6477 60.065 25.1306 61.4385 24.6571C62.3802 24.273 63.4007 24.1226 64.4131 24.2187C64.8912 24.2816 65.3387 24.4892 65.6954 24.8137C66.0522 25.1381 66.3012 25.5639 66.409 26.0339C66.5517 27.1444 66.2685 28.2678 65.6165 29.1779C64.9489 30.2202 64.1374 31.163 63.2062 31.9784C62.2535 32.862 61.1631 33.5843 59.9778 34.1167C59.4715 34.3716 58.9146 34.51 58.3479 34.5217C57.7813 34.5334 57.2191 34.4181 56.7028 34.1843C56.2616 33.9717 55.895 33.6308 55.6511 33.2061C55.4071 32.7815 55.2972 32.293 55.3358 31.8048C55.3728 31.5113 55.8265 31.5869 55.7895 31.8807C55.6283 33.1604 56.9457 34.0632 58.1012 34.0712C59.4993 33.9443 60.8222 33.3811 61.8826 32.461C62.9448 31.6806 63.8897 30.752 64.6886 29.7037C65.5336 28.7817 65.9992 27.5748 65.9923 26.3242C65.9457 26.0543 65.8459 25.7964 65.6987 25.5654C65.5516 25.3344 65.36 25.135 65.1351 24.9786C64.9103 24.8223 64.6566 24.7121 64.3888 24.6546C64.121 24.5971 63.8445 24.5934 63.5752 24.6436C62.373 24.807 61.2001 25.1403 60.0916 25.6335L55.8269 27.1825C54.5766 27.6367 53.3314 28.1444 52.0406 28.4745C50.9638 28.8047 49.8226 28.8668 48.7164 28.6554C48.2069 28.5373 47.7275 28.3146 47.3087 28.0013C46.8899 27.688 46.5409 27.291 46.2838 26.8355C45.815 25.8727 45.6439 24.7921 45.7922 23.7316C45.9405 22.6711 46.4014 21.6788 47.1163 20.8815C48.7829 18.8602 51.31 17.9234 53.7848 17.3354C56.4935 16.6627 59.2537 16.2173 62.0366 16.0039C64.7358 15.7674 67.4553 16.0512 70.0476 16.8399C71.1567 17.1718 72.1823 17.7367 73.0558 18.4966C73.9371 19.3103 74.4904 20.4183 74.6112 21.6118C74.9022 24.2712 73.6555 26.9697 72.5014 29.2881C71.1297 31.6665 70.0366 34.195 69.2438 36.8236C68.8746 38.0341 68.7909 39.3137 68.9992 40.5619C69.2076 41.8102 69.7023 42.9933 70.4446 44.0182C71.0997 44.9418 72.0508 45.6138 73.1401 45.9228C74.2295 46.2317 75.3917 46.1591 76.4342 45.717C78.9043 44.504 79.9119 41.6942 81.097 39.4102C82.1999 37.2297 83.8354 35.3629 85.852 33.9829C86.8354 33.318 87.8992 32.7805 89.0178 32.3832C90.1097 31.9556 91.2773 31.7547 92.4494 31.7929C92.9976 31.8153 93.5339 31.9592 94.0197 32.2143C94.5054 32.4693 94.9285 32.8291 95.2582 33.2676C95.8358 34.1454 96.1255 35.1814 96.0871 36.2316C95.9277 38.6502 95.1179 40.9808 93.7435 42.9773C92.4062 45.16 90.7719 47.136 89.3538 49.2635C88.5574 50.4321 87.8723 51.6728 87.3076 52.9692C86.8169 54.2413 86.521 55.5802 86.4299 56.9406C86.3496 58.1534 86.096 59.3485 85.6768 60.4895C85.2093 61.6186 84.6064 62.6868 83.8813 63.6706C82.5289 65.6647 80.6505 67.245 78.4545 68.2364C77.3486 68.725 76.1532 68.9784 74.9442 68.9805C73.7352 68.9825 72.539 68.7331 71.4315 68.2482C69.1185 67.1686 67.3854 65.175 65.6094 63.4053C65.1077 62.9054 64.6107 62.3994 64.1494 61.8617C64.0959 61.7993 64.0434 61.7381 63.9914 61.6781C63.9531 61.6943 63.9112 61.7004 63.8699 61.6958C63.8286 61.6912 63.7891 61.6761 63.7553 61.6519C63.7215 61.6277 63.6945 61.5952 63.6768 61.5575C63.6592 61.5199 63.6515 61.4783 63.6545 61.4368C63.6579 61.3997 63.664 61.3628 63.6678 61.3257C63.4079 61.0507 63.0949 60.8314 62.7477 60.6811C61.8038 60.2824 60.54 60.2488 59.8134 59.4469C59.6439 59.2398 59.5306 58.9924 59.4845 58.7288C59.4383 58.4652 59.4609 58.1941 59.5499 57.9417C59.7029 57.3136 59.8674 56.5733 59.0017 56.4857C58.4744 56.4956 57.9527 56.3763 57.4821 56.1384C57.0518 55.8648 56.7163 55.4652 56.5212 54.9941C56.3517 54.5938 56.3806 54.1138 56.1106 53.7609C55.7948 53.3482 55.3766 53.0065 55.0337 52.6149C54.6804 52.2979 54.4083 51.9008 54.2402 51.457C54.0722 51.0131 54.013 50.5354 54.0677 50.064C54.2806 49.53 54.6274 49.0599 55.0746 48.6988C55.5218 48.3377 56.0545 48.0977 56.6213 48.0021C57.6574 47.6953 59.1964 47.4323 59.5738 46.2355C59.68 45.9805 59.6941 45.6965 59.6137 45.4323C59.5332 45.1681 59.3633 44.9401 59.133 44.7876C58.8287 44.6963 58.5064 44.6828 58.1955 44.7482C57.8846 44.8137 57.5951 44.9561 57.3534 45.1624C56.3011 45.858 55.4038 46.7635 54.7178 47.8222C54.125 48.7288 53.8351 49.9198 53.0189 50.6654C52.8353 50.8296 52.6168 50.9499 52.3798 51.0173C52.1428 51.0846 51.8936 51.0972 51.6511 51.0541C51.4086 51.011 51.179 50.9133 50.9797 50.7685C50.7805 50.6236 50.6167 50.4353 50.5009 50.2179C50.2074 49.6873 50.0532 49.0909 50.0528 48.4844C50.0104 47.7221 49.995 46.9589 49.9448 46.1967C49.8457 44.6916 49.6843 43.1923 49.4606 41.6989C49.2375 40.2072 48.953 38.7263 48.607 37.2564C48.3989 36.0565 48.1271 34.8684 47.7928 33.6974C47.3384 32.6036 46.5657 31.6715 45.5751 31.0222C45.0191 30.6002 44.4474 30.197 43.8741 29.7963C43.2819 32.2323 42.9309 34.7207 42.8261 37.2254C42.8101 38.6958 43.1571 40.1474 43.8364 41.4516C44.7013 42.6957 45.7775 43.7788 47.0161 44.6518C47.5792 45.0646 48.051 45.5892 48.4021 46.1928C48.7532 46.7963 48.9759 47.4658 49.0564 48.1594C49.0348 48.6732 48.9072 49.1771 48.6816 49.6393C48.4561 50.1015 48.1375 50.5121 47.7458 50.8454C46.9882 51.4887 46.27 52.1771 45.5954 52.907C45.2728 53.2963 45.0947 53.7851 45.091 54.2907C45.0874 54.7962 45.2584 55.2875 45.5753 55.6815C46.1769 56.629 47.1089 57.5487 47.2571 58.7103C47.2883 58.9755 47.2655 59.2444 47.1899 59.5006C47.1144 59.7568 46.9877 59.995 46.8176 60.2009C46.3804 60.7565 45.6385 61.1873 45.4752 61.9197C45.2823 62.7851 46.2704 63.0421 46.7474 63.5335C46.9404 63.6955 47.0764 63.9152 47.1354 64.1602C47.1943 64.4052 47.1732 64.6626 47.0751 64.8947C46.9298 65.1054 46.7183 65.2616 46.4743 65.3386C46.1405 65.4636 45.8312 65.646 45.5601 65.8774C45.2793 66.1346 45.0551 66.4475 44.9016 66.7961C44.7482 67.1446 44.6689 67.5213 44.6687 67.9021C44.644 69.3368 45.2709 70.7332 44.6889 72.1353C44.4937 72.5662 44.2122 72.9526 43.8618 73.2705C43.5114 73.5884 43.0996 73.8312 42.6518 73.9838C40.5388 74.7875 38.2016 74.3088 36.0546 73.9461C34.9937 73.7669 33.9323 73.575 32.8757 73.36C32.6985 74.1281 32.2981 74.8267 31.7249 75.3678C31.3372 75.6248 30.9006 75.7988 30.4425 75.8792C29.9844 75.9595 29.5146 75.9443 29.0626 75.8346C25.6349 75.4318 22.2119 74.975 18.8105 74.3876C16.9927 74.0737 15.181 73.7268 13.3754 73.3469C11.7814 72.9242 10.1583 72.6198 8.51946 72.4363C7.7578 72.3133 6.97678 72.4167 6.27337 72.7337C5.56997 73.0507 4.97515 73.5673 4.56278 74.2194C4.0177 75.5481 3.75837 76.9766 3.80165 78.4121C3.56956 81.7592 2.79592 85.0464 1.51088 88.1457C1.18746 88.926 0.832354 89.6918 0.445554 90.4431C0.311064 90.7057 -0.108896 90.5177 0.0265638 90.2532ZM60.9532 59.6279C61.9361 59.85 62.8781 60.2246 63.745 60.7383C63.9508 59.4351 64.3978 58.1817 65.0632 57.0424C65.4703 56.3718 65.9376 55.7397 66.4595 55.1539C66.9269 54.6911 67.2587 54.1092 67.4192 53.4713C65.2641 55.1458 62.7893 56.3616 60.1469 57.044C60.1242 57.4719 60.0554 57.896 59.9417 58.309C59.8314 59.0256 60.3546 59.3935 60.9532 59.6279ZM57.3759 55.4687C57.5846 55.6595 57.8294 55.8066 58.0958 55.9014C58.3622 55.9962 58.6449 56.0368 58.9272 56.0207C59.1464 56.0094 59.3645 56.0575 59.5587 56.1599C59.7528 56.2622 59.9157 56.4151 60.0302 56.6023C62.6553 55.919 65.1109 54.7007 67.243 53.0238C63.753 53.2219 60.2912 53.765 56.9081 54.6452C56.9946 54.9537 57.1552 55.2364 57.3759 55.4687ZM43.046 21.9485C42.6016 20.8447 41.9795 19.8212 41.2042 18.9185C40.4863 18.1439 39.6237 17.5173 38.6651 17.0741C37.4161 16.5103 36.128 16.0376 34.8108 15.6597C34.6319 15.6034 34.452 15.5505 34.2727 15.4955C34.2451 16.6974 34.3856 17.8971 34.6903 19.06C35.365 21.4334 36.7097 23.5619 38.5633 25.1905C40.1349 26.5826 41.7998 27.8657 43.5464 29.0308C44.0685 26.6713 43.8947 24.2111 43.046 21.9485ZM23.1638 40.5321C24.946 38.4559 26.158 35.952 26.6807 33.2661C26.9179 32.0298 26.9951 30.7681 26.9106 29.5121C26.1544 29.5552 25.4146 29.7508 24.736 30.0874C24.0573 30.4239 23.4538 30.8943 22.9618 31.4703C21.9038 32.7481 21.218 34.2926 20.9796 35.9344C20.6025 38.1197 20.637 40.3562 21.0812 42.5288C21.8382 41.932 22.5357 41.2634 23.1638 40.5321ZM32.7038 68.121C32.5635 66.4072 32.4087 64.6852 32.1103 62.9906C31.8396 61.2166 31.2729 59.5006 30.434 57.9143C29.5729 56.4916 28.53 55.1872 27.3316 54.0343C26.1799 52.9153 25.1013 51.7235 24.1023 50.4663C23.1513 49.1911 22.3628 47.8023 21.755 46.3322C21.3514 45.3566 21.0273 44.35 20.7859 43.3222C19.7736 44.0087 18.7043 44.6071 17.5897 45.1107C16.1023 45.7181 14.6976 46.5111 13.409 47.4707C12.3014 48.3268 11.5153 49.5319 11.1781 50.8906C11.0876 51.6186 11.1477 52.3574 11.3548 53.0612C11.5619 53.765 11.9114 54.4186 12.3818 54.9816C13.2934 56.1982 14.111 57.4823 14.8278 58.8229C15.5394 60.2758 16.113 61.7945 16.8819 63.2197C18.3121 65.7608 20.397 67.8723 22.9198 69.3346C25.6192 70.8824 28.5479 71.9906 31.5958 72.6174C31.9049 72.6881 32.2152 72.7534 32.5254 72.8188C32.8342 71.2723 32.8944 69.6865 32.7038 68.121Z" fill="white"/>
</svg>
