<svg xmlns="http://www.w3.org/2000/svg" version="1.1" viewBox="-5.0 -10.0 110.0 135.0">
 <g fill-rule="evenodd">
  <path d="m41.426 69.051c0-1.4805 0.48828-2.7461 1.4375-3.5859 1.3008-1.1484 3.4883-1.5234 5.3516-0.57031 1.1211 0.56641 2.4453 0.56641 3.5625 0 1.8633-0.95312 4.0508-0.57812 5.3516 0.57031 0.92969 0.82031 1.418 2.0508 1.4375 3.4883-0.60547 0.16016-1.2617 0.32031-1.9609 0.46484-1.9141 0.40234-4.1641 0.74609-6.6406 0.77344-2.0742 0.023438-4.293-0.19141-6.6172-0.67969-0.63672-0.13281-1.2773-0.28516-1.9258-0.46094zm16.77 2.3594c-0.21875 0.71484-0.53516 1.4453-0.94922 2.1797-0.5625 1.0586-1.5156 2.125-2.6406 3.1133-2.6289 2.332-6.5859 2.332-9.2148 0-1.125-0.98828-2.0781-2.0508-2.6367-3.1055-0.39062-0.69141-0.69531-1.3828-0.91016-2.0547 0.32812 0.097656 0.65234 0.1875 0.97656 0.26953 2.5 0.63281 4.9297 0.82422 7.1797 0.79688 2.6641-0.03125 5.0938-0.39453 7.1367-0.90625 0.36719-0.09375 0.71875-0.1875 1.0625-0.28906zm0.35547-1.8555c-0.027343 0.39062-0.089843 0.79297-0.18359 1.2031-0.4375 0.13281-0.89453 0.26172-1.3789 0.38281-2.0039 0.50391-4.3906 0.85547-7.0039 0.89062-2.2031 0.027344-4.582-0.16016-7.0273-0.77734-0.43359-0.10938-0.86719-0.23438-1.3047-0.37109-0.10156-0.41797-0.16797-0.82812-0.20312-1.2266 0.59766 0.16016 1.1953 0.29688 1.7812 0.42188 2.3672 0.5 4.6289 0.71484 6.7422 0.69141 2.5156-0.027343 4.8047-0.375 6.7539-0.78516 0.64844-0.13672 1.2578-0.28125 1.8242-0.42969z"/>
  <path d="m35.836 34.699c0.42969-0.47266 1.1602-0.50781 1.6289-0.078125 0.47266 0.42969 0.50391 1.1602 0.078125 1.6289 0 0-6.0586 6.5352-14.285 6.6289-4.2539 0.050782-9.1172-1.5859-13.988-6.8203-0.32422-0.34375-0.30859-0.88281 0.03125-1.207 0.34375-0.32422 0.88281-0.30859 1.207 0.03125 4.4922 4.6367 8.8711 6.1055 12.711 5.9883 7.3359-0.23047 12.621-6.1758 12.621-6.1758z"/>
  <path d="m89.258 34.699c0.42969-0.47266 1.1602-0.50781 1.6289-0.078125 0.47266 0.42969 0.50391 1.1602 0.078125 1.6289 0 0-6.0586 6.5352-14.285 6.6289-4.2539 0.050782-9.1172-1.5859-13.988-6.8203-0.32422-0.34375-0.30859-0.88281 0.03125-1.207 0.34375-0.32422 0.88281-0.30859 1.207 0.03125 4.4922 4.6367 8.8711 6.1055 12.711 5.9883 7.3359-0.23047 12.621-6.1758 12.621-6.1758z"/>
  <path d="m63.234 67.973c0.17188-0.089844 0.38281-0.027344 0.47656 0.14453 0.089843 0.17187 0.027343 0.38281-0.14453 0.47656 0 0-2.5156 1.5273-6.5703 2.5508-2.0039 0.50391-4.3906 0.85547-7.0039 0.89062-2.2031 0.027344-4.582-0.16016-7.0273-0.77734-2.1445-0.54297-4.3281-1.4297-6.5234-2.6602-0.17188-0.089844-0.24219-0.30078-0.15234-0.47266 0.089844-0.17188 0.30078-0.24219 0.47266-0.15234 2.2031 1.0312 4.3828 1.668 6.4766 2.1094 2.3672 0.5 4.6289 0.71484 6.7422 0.69141 2.5156-0.027344 4.8047-0.375 6.7539-0.78516 3.957-0.82812 6.5078-2.0156 6.5078-2.0156z"/>
  <path d="m55.793 52.926c0.56641-0.28906 1.2617-0.066406 1.5547 0.50391 0.28906 0.56641 0.066406 1.2617-0.50391 1.5547-1.3828 0.69141-2.7734 1.1523-4.1719 1.3359-1.4688 0.19141-2.9492 0.09375-4.4297-0.35937-0.89844-0.26172-1.6445-0.8125-2.1484-1.5352-0.5-0.72266-0.76953-1.6055-0.69922-2.5312 1.0547-14.629-3.0859-22.84-10.102-26.473-7.6875-3.9844-18.645-2.5312-29.625 1.7617-0.25 0.10156-0.53125-0.019532-0.63281-0.26953-0.10156-0.25 0.019532-0.53125 0.26953-0.63281 11.297-4.6523 22.637-6.2109 30.68-2.2227 7.5547 3.7422 12.34 12.34 11.496 27.973v0.003906c-0.023438 0.42969 0.10938 0.83984 0.34766 1.1719 0.23438 0.32812 0.58594 0.57031 0.99609 0.68359 0.003906 0 0.007812 0.003906 0.011719 0.003906 1.1875 0.33594 2.3594 0.39453 3.5195 0.22266 1.1562-0.17188 2.3008-0.58203 3.4336-1.1758z"/>
  <path d="m56.816 27.762c-0.57422 0.27344-1.2656 0.03125-1.5391-0.54297-0.27344-0.57422-0.03125-1.2656 0.54297-1.5391 6.4219-2.9453 12.789-4.3594 19.57-4.1055 5.9961 0.22656 12.32 1.7539 19.301 4.6914 0.25 0.10156 0.37109 0.38672 0.27344 0.63672-0.10156 0.25-0.38672 0.37109-0.63672 0.27344-6.9023-2.6367-13.117-3.9336-18.973-3.957-6.4805-0.027344-12.508 1.5273-18.539 4.543z"/>
 </g>
<text x="0.0" y="117.5" font-size="5.0" font-weight="bold" font-family="Arbeit Regular, Helvetica, Arial-Unicode, Arial, Sans-serif" fill="#000000">Created by Zach Bogart</text><text x="0.0" y="122.5" font-size="5.0" font-weight="bold" font-family="Arbeit Regular, Helvetica, Arial-Unicode, Arial, Sans-serif" fill="#000000">from Noun Project</text></svg>